<?xml version="1.0"?>
<svg width="448" height="512" xmlns="http://www.w3.org/2000/svg" xmlns:svg="http://www.w3.org/2000/svg">
 <!--!Font Awesome Free 6.7.1 by @fontawesome - https://fontawesome.com License - https://fontawesome.com/license/free Copyright 2024 Fonticons, Inc.-->
 <g class="layer">
  <title>Layer 1</title>
  <path d="m135.2,18.7c5.4,-10.9 16.5,-17.7 28.6,-17.7l120.4,0c12.1,0 23.2,6.8 28.6,17.7l7.2,14.3l96,0c17.7,0 32,14.3 32,32s-14.3,32 -32,32l-384,0c-17.7,0 -32,-14.3 -32,-32s14.3,-32 32,-32l96,0l7.2,-14.3zm-103.2,110.3l384,0l0,320c0,35.3 -28.7,64 -64,64l-256,0c-35.3,0 -64,-28.7 -64,-64l0,-320zm96,64c-8.8,0 -16,7.2 -16,16l0,224c0,8.8 7.2,16 16,16s16,-7.2 16,-16l0,-224c0,-8.8 -7.2,-16 -16,-16zm96,0c-8.8,0 -16,7.2 -16,16l0,224c0,8.8 7.2,16 16,16s16,-7.2 16,-16l0,-224c0,-8.8 -7.2,-16 -16,-16zm96,0c-8.8,0 -16,7.2 -16,16l0,224c0,8.8 7.2,16 16,16s16,-7.2 16,-16l0,-224c0,-8.8 -7.2,-16 -16,-16z" fill="#bdc426" id="svg_1"/>
 </g>
</svg>